<svg xmlns="http://www.w3.org/2000/svg" viewBox="0 0 1200 340" width="1200" height="340" role="img" aria-label="Liminal Memory">
  <defs>
    <pattern id="grid" width="40" height="40" patternUnits="userSpaceOnUse">
      <path d="M40 0H0V40" fill="none" stroke="#ededed" stroke-width="1"/>
      <path d="M18 20h4 M20 18v4" stroke="#d9d9d9" stroke-width="1"/>
    </pattern>
  </defs>

  <rect x="0" y="0" width="1200" height="340" fill="#fafafa"/>
  <rect x="0" y="0" width="1200" height="340" fill="url(#grid)"/>

  <rect x="24" y="24" width="1152" height="292" rx="2" fill="none" stroke="#d4d4d4" stroke-width="1"/>
  <g stroke="#ff4500" stroke-width="1.5" fill="none">
    <path d="M24 16v16 M16 24h16"/>
    <path d="M1176 16v16 M1168 24h16"/>
    <path d="M24 308v16 M16 316h16"/>
    <path d="M1176 308v16 M1168 316h16"/>
  </g>

  <g font-family="'SF Mono', SFMono-Regular, Consolas, 'Liberation Mono', Menlo, monospace">
    <text x="46" y="55" font-size="12" fill="#a3a3a3">// self-organizing memory graph</text>
    <circle cx="1012" cy="50" r="4" fill="#ff4500"/>
    <text x="1024" y="55" font-size="12" fill="#737373">READY</text>
    <rect x="1090" y="40" width="66" height="21" rx="4" fill="#fff0eb"/>
    <text x="1123" y="55" font-size="11" fill="#ff4500" text-anchor="middle">v1.0.0</text>
  </g>

  <g stroke="#d6d6d6" stroke-width="1.5" fill="none">
    <line x1="150" y1="120" x2="250" y2="92"/>
    <line x1="150" y1="120" x2="255" y2="182"/>
    <line x1="250" y1="92" x2="370" y2="140"/>
    <line x1="255" y1="182" x2="370" y2="140"/>
    <line x1="255" y1="182" x2="455" y2="200"/>
    <line x1="370" y1="140" x2="480" y2="100"/>
    <line x1="370" y1="140" x2="590" y2="158"/>
    <line x1="480" y1="100" x2="700" y2="108"/>
    <line x1="455" y1="200" x2="590" y2="158"/>
    <line x1="590" y1="158" x2="710" y2="210"/>
    <line x1="590" y1="158" x2="830" y2="148"/>
    <line x1="700" y1="108" x2="830" y2="148"/>
    <line x1="700" y1="108" x2="940" y2="98"/>
    <line x1="710" y1="210" x2="830" y2="148"/>
    <line x1="830" y1="148" x2="960" y2="190"/>
    <line x1="940" y1="98" x2="960" y2="190"/>
  </g>

  <path d="M590 143V116" stroke="#c0c0c0" stroke-width="1" stroke-dasharray="3 3"/>
  <text x="590" y="108" font-size="11" fill="#737373" text-anchor="middle" font-family="'SF Mono', SFMono-Regular, Consolas, Menlo, monospace">category</text>

  <g>
    <circle cx="370" cy="140" r="22" fill="#ff4500" fill-opacity="0.12"/>
    <circle cx="590" cy="158" r="22" fill="#ff4500" fill-opacity="0.12"/>
    <circle cx="830" cy="148" r="22" fill="#ff4500" fill-opacity="0.12"/>

    <circle cx="150" cy="120" r="8" fill="#ff6a3d"/>
    <circle cx="480" cy="100" r="8" fill="#ff6a3d"/>
    <circle cx="700" cy="108" r="8" fill="#ff6a3d"/>
    <circle cx="940" cy="98" r="8" fill="#ff6a3d"/>

    <circle cx="250" cy="92" r="7.5" fill="#c8c8c8"/>
    <circle cx="255" cy="182" r="7.5" fill="#c8c8c8"/>
    <circle cx="455" cy="200" r="7.5" fill="#c8c8c8"/>
    <circle cx="710" cy="210" r="7.5" fill="#c8c8c8"/>
    <circle cx="960" cy="190" r="7.5" fill="#c8c8c8"/>

    <circle cx="370" cy="140" r="13" fill="#ff4500"/>
    <circle cx="590" cy="158" r="13" fill="#ff4500"/>
    <circle cx="830" cy="148" r="13" fill="#ff4500"/>
  </g>

  <g fill="#cfcfcf">
    <circle cx="1096" cy="250" r="2.5"/><circle cx="1109" cy="250" r="2.5"/><circle cx="1122" cy="250" r="2.5"/>
    <circle cx="1096" cy="263" r="2.5"/><circle cx="1109" cy="263" r="2.5"/><circle cx="1122" cy="263" r="2.5"/>
    <circle cx="1096" cy="276" r="2.5"/><circle cx="1109" cy="276" r="2.5"/><circle cx="1122" cy="276" r="2.5"/>
  </g>

  <g font-family="-apple-system, BlinkMacSystemFont, 'Segoe UI', Roboto, Helvetica, Arial, sans-serif">
    <text x="44" y="262" font-size="58" font-weight="800" fill="#0a0a0a" letter-spacing="-1">Liminal Memory</text>
    <rect x="47" y="278" width="120" height="5" rx="2.5" fill="#ff4500"/>
    <text x="49" y="304" font-size="20" font-weight="400" fill="#737373" letter-spacing="0.2">Infinite-context memory for any LLM &#183; zero dependencies</text>
  </g>
</svg>
